ply
format ascii 1.0
comment Created by Blender 3.0.1 - www.blender.org
element vertex 419
property float x
property float y
property float z
property float nx
property float ny
property float nz
property float s
property float t
element face 584
property list uchar uint vertex_indices
end_header
0.217454 -0.000000 0.330184 0.852473 0.000000 0.522752 0.787676 0.179985
0.228563 -0.000000 0.312068 0.959685 0.000000 -0.280953 0.787691 0.172478
0.228563 0.096434 0.296795 0.959685 -0.086825 -0.267220 0.750805 0.172463
0.217454 0.102032 0.314024 0.852473 0.161534 0.497147 0.750798 0.179970
0.228563 0.183429 0.252469 0.959685 -0.165136 -0.227302 0.713749 0.172455
0.217454 0.194077 0.267125 0.852473 0.307260 0.422895 0.713745 0.179963
0.228563 0.252469 0.183429 0.959685 -0.227302 -0.165136 0.676577 0.172452
0.217454 0.267125 0.194077 0.852473 0.422895 0.307260 0.676575 0.179960
0.228563 0.296795 0.096435 0.959685 -0.267220 -0.086825 0.639346 0.172448
0.217454 0.314024 0.102033 0.852473 0.497147 0.161534 0.639345 0.179957
0.228563 0.312069 0.000000 0.959685 -0.280953 0.000000 0.602108 0.172448
0.217454 0.330184 0.000000 0.852473 0.522752 0.000000 0.602108 0.179956
0.228563 0.296795 -0.096434 0.959685 -0.267220 0.086825 0.564912 0.172450
0.217454 0.314024 -0.102032 0.852473 0.497147 -0.161534 0.564912 0.179958
0.228563 0.252469 -0.183429 0.959716 -0.227302 0.165136 0.527800 0.172457
0.217454 0.267125 -0.194077 0.852473 0.422895 -0.307260 0.527801 0.179965
0.228563 0.183429 -0.252469 0.959685 -0.165136 0.227302 0.490813 0.172465
0.217454 0.194077 -0.267125 0.852473 0.307260 -0.422895 0.490817 0.179972
0.228563 0.096434 -0.296795 0.959685 -0.086825 0.267220 0.453991 0.172480
0.217454 0.102032 -0.314024 0.852473 0.161534 -0.497147 0.453999 0.179986
0.228563 -0.000000 -0.312068 0.959685 0.000000 0.280953 0.417366 0.172505
0.217454 -0.000000 -0.330184 0.852473 0.000000 -0.522752 0.417379 0.180011
0.228563 -0.096435 -0.296795 0.959685 0.086825 0.267220 0.380963 0.172558
0.217454 -0.102033 -0.314024 0.852473 -0.161534 -0.497147 0.380976 0.180066
0.228563 -0.183429 -0.252469 0.959685 0.165136 0.227302 0.344778 0.172702
0.217454 -0.194077 -0.267124 0.852473 -0.307260 -0.422895 0.344751 0.180220
0.228563 -0.252469 -0.183429 0.959685 0.227302 0.165136 0.308742 0.172893
0.217454 -0.267125 -0.194077 0.852473 -0.422895 -0.307260 0.308538 0.180444
0.228563 -0.296795 -0.096434 0.959685 0.267220 0.086825 0.272677 0.172686
0.217454 -0.314024 -0.102032 0.852473 -0.497147 -0.161534 0.271929 0.180278
0.228563 -0.312068 0.000000 0.959685 0.280953 0.000000 0.236631 0.169644
0.217454 -0.330184 0.000000 0.852473 -0.522752 0.000000 0.234442 0.176839
0.217454 -0.330184 0.000000 0.852473 -0.522752 0.000000 0.971439 0.176976
0.228563 -0.312068 0.000000 0.959685 0.280953 0.000000 0.969267 0.169775
0.228563 -0.296795 0.096435 0.959685 0.267220 -0.086825 0.933165 0.172764
0.217454 -0.314024 0.102033 0.852473 -0.497147 0.161534 0.933898 0.180351
0.228563 -0.252468 0.183430 0.959685 0.227302 -0.165136 0.896941 0.172964
0.217454 -0.267124 0.194078 0.852473 -0.422895 0.307260 0.897150 0.180512
0.228563 -0.183429 0.252469 0.959685 0.165136 -0.227302 0.860728 0.172605
0.217454 -0.194077 0.267125 0.852473 -0.307260 0.422895 0.860759 0.180123
0.228563 -0.096434 0.296795 0.959685 0.086825 -0.267220 0.824350 0.172512
0.217454 -0.102032 0.314024 0.852473 -0.161534 0.497147 0.824329 0.180021
0.099620 -0.000000 0.272519 0.088015 0.000000 -0.996094 0.787718 0.127790
0.099620 0.084213 0.259181 0.088015 -0.307810 -0.947356 0.750818 0.127778
0.099620 0.160183 0.220473 0.088015 -0.585498 -0.805872 0.713755 0.127771
0.099620 0.220473 0.160183 0.088015 -0.805872 -0.585498 0.676580 0.127767
0.099620 0.259181 0.084213 0.088015 -0.947356 -0.307810 0.639347 0.127764
0.099620 0.272519 0.000000 0.088015 -0.996094 0.000000 0.602108 0.127764
0.099620 0.259181 -0.084213 0.088015 -0.947356 0.307810 0.564910 0.127766
0.099620 0.220473 -0.160183 0.088015 -0.805872 0.585498 0.527798 0.127773
0.099620 0.160183 -0.220473 0.088015 -0.585498 0.805872 0.490810 0.127782
0.099620 0.084213 -0.259181 0.088015 -0.307810 0.947356 0.453982 0.127796
0.099620 -0.000000 -0.272519 0.088015 0.000000 0.996094 0.417349 0.127817
0.099620 -0.084213 -0.259181 0.088015 0.307810 0.947356 0.380944 0.127849
0.099620 -0.160183 -0.220473 0.088015 0.585498 0.805872 0.344886 0.127887
0.099620 -0.220473 -0.160183 0.088015 0.805872 0.585498 0.309780 0.127800
0.099620 -0.259181 -0.084213 0.088015 0.947356 0.307810 0.276023 0.127706
0.099620 -0.272519 0.000000 0.088015 0.996094 0.000000 0.243713 0.127117
0.099620 -0.272519 0.000000 0.088015 0.996094 0.000000 0.962272 0.127208
0.099620 -0.259181 0.084213 0.088015 0.947356 -0.307810 0.929921 0.127772
0.099620 -0.220472 0.160183 0.088015 0.805872 -0.585498 0.896071 0.127845
0.099620 -0.160182 0.220473 0.088015 0.585498 -0.805872 0.860751 0.127831
0.099620 -0.084213 0.259181 0.088015 0.307810 -0.947356 0.824397 0.127808
-0.203926 -0.000000 -0.330184 -0.852473 0.000000 -0.522752 0.417308 0.009596
-0.215035 -0.000000 -0.312068 -0.932951 0.000000 0.359966 0.417324 0.017107
-0.215035 0.096434 -0.296795 -0.932951 -0.111209 0.342326 0.453971 0.017091
-0.203926 0.102033 -0.314023 -0.852473 0.161534 -0.497147 0.453964 0.009582
-0.215035 0.183429 -0.252469 -0.932951 -0.211554 0.291208 0.490801 0.017079
-0.203926 0.194077 -0.267124 -0.852473 0.307260 -0.422895 0.490798 0.009570
-0.215035 0.252469 -0.183429 -0.932951 -0.291208 0.211585 0.527790 0.017070
-0.203926 0.267125 -0.194077 -0.852473 0.422895 -0.307260 0.527789 0.009562
-0.215035 0.296795 -0.096434 -0.932951 -0.342326 0.111209 0.564906 0.017065
-0.203926 0.314024 -0.102032 -0.852473 0.497147 -0.161534 0.564905 0.009557
-0.215035 0.312069 0.000000 -0.932951 -0.359966 0.000000 0.602107 0.017062
-0.203926 0.330184 0.000000 -0.852473 0.522752 0.000000 0.602107 0.009555
-0.215035 0.296795 0.096435 -0.932951 -0.342326 -0.111209 0.639348 0.017063
-0.203926 0.314024 0.102033 -0.852473 0.497147 0.161534 0.639349 0.009555
-0.215035 0.252469 0.183430 -0.932951 -0.291208 -0.211554 0.676583 0.017065
-0.203926 0.267125 0.194078 -0.852473 0.422895 0.307260 0.676584 0.009557
-0.215035 0.183429 0.252469 -0.932951 -0.211554 -0.291208 0.713760 0.017069
-0.203926 0.194077 0.267125 -0.852473 0.307260 0.422895 0.713764 0.009561
-0.215035 0.096434 0.296795 -0.932951 -0.111209 -0.342326 0.750832 0.017075
-0.203926 0.102032 0.314024 -0.852473 0.161534 0.497147 0.750840 0.009566
-0.215035 -0.000000 0.312069 -0.932951 0.000000 -0.359966 0.787751 0.017082
-0.203926 -0.000000 0.330184 -0.852473 0.000000 0.522752 0.787768 0.009572
-0.215035 -0.096435 0.296795 -0.932951 0.111209 -0.342326 0.824486 0.017081
-0.203926 -0.102033 0.314024 -0.852473 -0.161534 0.497147 0.824534 0.009566
-0.215035 -0.183429 0.252469 -0.932951 0.211585 -0.291208 0.861041 0.017042
-0.203926 -0.194078 0.267125 -0.852473 -0.307260 0.422895 0.861204 0.009527
-0.215035 -0.252469 0.183429 -0.932951 0.291208 -0.211554 0.897765 0.016748
-0.203926 -0.267125 0.194077 -0.852473 -0.422895 0.307260 0.897975 0.009230
-0.215035 -0.296795 0.096434 -0.932951 0.342326 -0.111209 0.934623 0.016816
-0.203926 -0.314024 0.102032 -0.852473 -0.497147 0.161534 0.935037 0.009248
-0.215035 -0.312068 -0.000000 -0.932951 0.359966 0.000000 0.971067 0.018496
-0.203926 -0.330184 -0.000000 -0.852473 -0.522752 0.000000 0.972777 0.011195
-0.203926 -0.330184 -0.000000 -0.852473 -0.522752 0.000000 0.233213 0.011139
-0.215035 -0.312068 -0.000000 -0.932951 0.359966 0.000000 0.234923 0.018434
-0.215035 -0.296795 -0.096435 -0.932951 0.342326 0.111209 0.271324 0.016762
-0.203926 -0.314024 -0.102033 -0.852473 -0.497147 -0.161534 0.270912 0.009195
-0.215035 -0.252468 -0.183429 -0.932951 0.291208 0.211585 0.308056 0.016725
-0.203926 -0.267124 -0.194077 -0.852473 -0.422895 -0.307260 0.307848 0.009207
-0.215035 -0.183429 -0.252469 -0.932951 0.211585 0.291208 0.344577 0.017062
-0.203926 -0.194077 -0.267125 -0.852473 -0.307260 -0.422895 0.344414 0.009547
-0.215035 -0.096434 -0.296795 -0.932951 0.111209 0.342326 0.380870 0.017114
-0.203926 -0.102032 -0.314024 -0.852473 -0.161534 -0.497147 0.380824 0.009598
0.230547 -0.000000 0.447561 0.997192 0.000000 0.074770 0.912915 0.610699
0.230547 0.138304 0.425656 0.997192 0.023103 0.071108 0.897984 0.706503
0.217454 0.155802 0.479509 0.770623 0.196905 0.606067 0.936246 0.718663
0.217454 -0.000000 0.504185 0.770623 0.000000 0.637257 0.953053 0.610699
0.230547 0.263070 0.362085 0.997192 0.043947 0.060488 0.854546 0.793141
0.217454 0.296353 0.407895 0.770623 0.374554 0.515549 0.887293 0.816414
0.230547 0.362085 0.263070 0.997192 0.060488 0.043947 0.786620 0.862174
0.217454 0.407895 0.296353 0.770623 0.515549 0.374554 0.810595 0.894454
0.230547 0.425656 0.138304 0.997192 0.071108 0.023103 0.700683 0.906676
0.217454 0.479509 0.155802 0.770623 0.606067 0.196905 0.713366 0.944863
0.230547 0.447561 -0.000000 0.997192 0.074770 0.000000 0.605180 0.922050
0.217454 0.504185 -0.000000 0.770623 0.637257 0.000000 0.605180 0.962300
0.230547 0.425656 -0.138304 0.997192 0.071108 -0.023103 0.509677 0.906676
0.217454 0.479509 -0.155802 0.770623 0.606067 -0.196905 0.496993 0.944863
0.230547 0.362085 -0.263070 0.997192 0.060488 -0.043947 0.423739 0.862174
0.217454 0.407895 -0.296353 0.770623 0.515549 -0.374554 0.399764 0.894454
0.230547 0.263070 -0.362085 0.997192 0.043947 -0.060488 0.355814 0.793141
0.217454 0.296353 -0.407895 0.770623 0.374554 -0.515549 0.323066 0.816414
0.230547 0.138304 -0.425656 0.997192 0.023103 -0.071108 0.312376 0.706502
0.217454 0.155802 -0.479509 0.770623 0.196905 -0.606067 0.274114 0.718663
0.230547 -0.000000 -0.447561 0.997192 0.000000 -0.074770 0.297444 0.610699
0.217454 -0.000000 -0.504185 0.770623 0.000000 -0.637257 0.257307 0.610699
0.230547 -0.138304 -0.425656 0.997192 -0.023103 -0.071108 0.312376 0.514894
0.217454 -0.155802 -0.479509 0.770623 -0.196905 -0.606067 0.274114 0.502734
0.230547 -0.263070 -0.362085 0.997192 -0.043947 -0.060488 0.355814 0.428256
0.217454 -0.296353 -0.407894 0.770623 -0.374554 -0.515549 0.323066 0.404983
0.230547 -0.362085 -0.263070 0.997192 -0.060488 -0.043947 0.423740 0.359223
0.217454 -0.407895 -0.296352 0.770623 -0.515549 -0.374554 0.399765 0.326943
0.230547 -0.425656 -0.138304 0.997192 -0.071108 -0.023103 0.509677 0.314721
0.217454 -0.479509 -0.155801 0.770623 -0.606067 -0.196905 0.496994 0.276533
0.230547 -0.447561 0.000000 0.997192 -0.074770 0.000000 0.605180 0.299347
0.217454 -0.504185 0.000000 0.770623 -0.637257 0.000000 0.605180 0.259097
0.230547 -0.425656 0.138304 0.997192 -0.071108 0.023103 0.700683 0.314721
0.217454 -0.479509 0.155802 0.770623 -0.606067 0.196905 0.713367 0.276534
0.230547 -0.362084 0.263070 0.997192 -0.060488 0.043947 0.786620 0.359224
0.217454 -0.407894 0.296353 0.770623 -0.515549 0.374554 0.810595 0.326943
0.230547 -0.263069 0.362085 0.997192 -0.043947 0.060488 0.854546 0.428257
0.217454 -0.296352 0.407895 0.770623 -0.374554 0.515549 0.887293 0.404983
0.230547 -0.138303 0.425656 0.997192 -0.023103 0.071108 0.897984 0.514895
0.217454 -0.155801 0.479509 0.770623 -0.196905 0.606067 0.936246 0.502735
0.170312 0.163382 0.502837 0.232276 0.300546 0.925016 0.971282 0.729916
0.170312 -0.000000 0.528714 0.232276 0.000000 0.972625 0.989862 0.610699
0.170312 0.310770 0.427739 0.232276 0.571703 0.786859 0.917161 0.837864
0.170312 0.427739 0.310770 0.232276 0.786859 0.571703 0.832352 0.924055
0.170312 0.502837 0.163382 0.232276 0.925016 0.300546 0.724828 0.979735
0.170312 0.528714 -0.000000 0.232276 0.972625 0.000000 0.605180 0.998996
0.170312 0.502837 -0.163382 0.232276 0.925016 -0.300546 0.485531 0.979735
0.170312 0.427739 -0.310770 0.232276 0.786859 -0.571703 0.378007 0.924055
0.170312 0.310770 -0.427739 0.232276 0.571703 -0.786859 0.293198 0.837864
0.170312 0.163381 -0.502837 0.232276 0.300546 -0.925016 0.239077 0.729915
0.170312 -0.000000 -0.528714 0.232276 0.000000 -0.972625 0.220497 0.610699
0.170312 -0.163382 -0.502837 0.232276 -0.300546 -0.925016 0.239077 0.491482
0.170312 -0.310771 -0.427738 0.232276 -0.571703 -0.786859 0.293199 0.383533
0.170312 -0.427739 -0.310770 0.232276 -0.786859 -0.571703 0.378008 0.297342
0.170312 -0.502837 -0.163381 0.232276 -0.925016 -0.300546 0.485531 0.241661
0.170312 -0.528714 0.000001 0.232276 -0.972625 0.000000 0.605180 0.222401
0.170312 -0.502837 0.163382 0.232276 -0.925016 0.300546 0.724829 0.241662
0.170312 -0.427738 0.310771 0.232276 -0.786859 0.571703 0.832353 0.297342
0.170312 -0.310770 0.427739 0.232276 -0.571703 0.786859 0.917161 0.383534
0.170312 -0.163381 0.502837 0.232276 -0.300546 0.925016 0.971282 0.491482
0.217454 -0.000000 0.330184 0.993835 0.000000 -0.110843 0.830470 0.610699
0.217454 0.102032 0.314024 0.993835 -0.034242 -0.105411 0.819511 0.681158
0.217454 0.194077 0.267125 0.993835 -0.065157 -0.089663 0.787652 0.744831
0.217454 0.267125 0.194077 0.993835 -0.089663 -0.065157 0.737889 0.795505
0.217454 0.314024 0.102032 0.993835 -0.105411 -0.034242 0.675007 0.828131
0.217454 0.330184 -0.000000 0.993835 -0.110843 0.000000 0.605180 0.839394
0.217454 0.314024 -0.102033 0.993835 -0.105411 0.034242 0.535352 0.828131
0.217454 0.267125 -0.194077 0.993835 -0.089663 0.065157 0.472470 0.795505
0.217454 0.194077 -0.267125 0.993835 -0.065157 0.089663 0.422708 0.744831
0.217454 0.102032 -0.314024 0.993835 -0.034242 0.105411 0.390848 0.681158
0.217454 -0.000000 -0.330184 0.993835 0.000000 0.110843 0.379889 0.610699
0.217454 -0.102033 -0.314024 0.993835 0.034242 0.105411 0.390848 0.540239
0.217454 -0.194078 -0.267124 0.993835 0.065157 0.089663 0.422708 0.476566
0.217454 -0.267125 -0.194077 0.993835 0.089663 0.065157 0.472471 0.425892
0.217454 -0.314024 -0.102032 0.993835 0.105411 0.034242 0.535352 0.393266
0.217454 -0.330184 0.000000 0.993835 0.110843 0.000000 0.605180 0.382003
0.217454 -0.314024 0.102033 0.993835 0.105411 -0.034242 0.675008 0.393266
0.217454 -0.267124 0.194078 0.993835 0.089663 -0.065157 0.737889 0.425893
0.217454 -0.194077 0.267125 0.993835 0.065157 -0.089663 0.787652 0.476566
0.217454 -0.102032 0.314024 0.993835 0.034242 -0.105411 0.819511 0.540239
0.170312 0.163382 0.502837 0.232276 0.300546 0.925016 0.006384 0.601024
-0.154947 0.163382 0.502837 -0.232276 0.300546 0.925016 0.197976 0.601024
-0.154947 0.000000 0.528714 -0.232276 0.000000 0.972625 0.197976 0.503560
0.170312 -0.000000 0.528714 0.232276 0.000000 0.972625 0.006384 0.503560
0.170312 0.310770 0.427739 0.232276 0.571703 0.786859 0.006384 0.698484
-0.154947 0.310770 0.427739 -0.232276 0.571703 0.786859 0.197976 0.698484
0.170312 0.528714 -0.000000 0.232276 0.972625 0.000000 0.006384 0.990828
-0.154947 0.528714 -0.000000 -0.232276 0.972625 0.000000 0.197976 0.990828
-0.154947 0.502837 0.163382 -0.232276 0.925016 0.300546 0.197976 0.893386
0.170312 0.502837 0.163382 0.232276 0.925016 0.300546 0.006384 0.893386
0.170312 0.502837 -0.163382 0.232276 0.925016 -0.300546 0.006384 0.112046
-0.154947 0.502837 -0.163382 -0.232276 0.925016 -0.300546 0.197976 0.112046
-0.154947 0.528714 -0.000000 -0.232276 0.972625 0.000000 0.197976 0.014605
0.170312 0.528714 -0.000000 0.232276 0.972625 0.000000 0.006384 0.014605
0.170312 0.427739 -0.310770 0.232276 0.786859 -0.571703 0.006384 0.209494
-0.154947 0.427739 -0.310770 -0.232276 0.786859 -0.571703 0.197976 0.209494
0.170312 0.310770 -0.427739 0.232276 0.571703 -0.786859 0.006384 0.306948
-0.154947 0.310770 -0.427739 -0.232276 0.571703 -0.786859 0.197976 0.306948
0.170312 -0.000000 -0.528714 0.232276 0.000000 -0.972625 0.006384 0.501870
-0.154947 -0.000000 -0.528714 -0.232276 0.000000 -0.972625 0.197976 0.501870
-0.154947 0.163381 -0.502837 -0.232276 0.300546 -0.925016 0.197976 0.404407
0.170312 0.163381 -0.502837 0.232276 0.300546 -0.925016 0.006384 0.404407
0.170312 -0.163382 -0.502837 0.232276 -0.300546 -0.925016 0.006384 0.599333
-0.154947 -0.163382 -0.502837 -0.232276 -0.300546 -0.925016 0.197976 0.599333
-0.154947 -0.502837 -0.163381 -0.232276 -0.925016 -0.300546 0.197976 0.891694
-0.154947 -0.427739 -0.310770 -0.232276 -0.786859 -0.571703 0.197976 0.794246
0.170312 -0.427739 -0.310770 0.232276 -0.786859 -0.571703 0.006384 0.794246
0.170312 -0.502837 -0.163381 0.232276 -0.925016 -0.300546 0.006384 0.891694
0.170312 -0.528714 0.000001 0.232276 -0.972625 0.000000 0.006385 0.989136
-0.154947 -0.528714 0.000001 -0.232276 -0.972625 0.000000 0.197976 0.989136
0.170312 -0.502837 0.163382 0.232276 -0.925016 0.300546 0.006384 0.113734
-0.154947 -0.502837 0.163382 -0.232276 -0.925016 0.300546 0.197976 0.113734
-0.154947 -0.528714 0.000001 -0.232276 -0.972625 0.000000 0.197976 0.016292
0.170312 -0.528714 0.000001 0.232276 -0.972625 0.000000 0.006384 0.016292
-0.154947 -0.310770 0.427739 -0.232276 -0.571703 0.786859 0.197976 0.308637
-0.154947 -0.427738 0.310771 -0.232276 -0.786859 0.571703 0.197976 0.211182
0.170312 -0.427738 0.310771 0.232276 -0.786859 0.571703 0.006384 0.211182
0.170312 -0.310770 0.427739 0.232276 -0.571703 0.786859 0.006384 0.308637
-0.154947 -0.163381 0.502837 -0.232276 -0.300546 0.925016 0.197976 0.406097
0.170312 -0.163381 0.502837 0.232276 -0.300546 0.925016 0.006384 0.406097
-0.202089 0.155802 0.479509 -0.770623 0.196905 0.606067 0.274114 0.718663
-0.215182 0.138304 0.425656 -0.997192 0.023103 0.071108 0.312376 0.706502
-0.215181 -0.000000 0.447561 -0.997192 0.000000 0.074770 0.297445 0.610699
-0.202089 -0.000000 0.504185 -0.770623 0.000000 0.637257 0.257307 0.610699
-0.202089 0.296353 0.407895 -0.770623 0.374554 0.515549 0.323067 0.816414
-0.215181 0.263070 0.362085 -0.997192 0.043947 0.060488 0.355814 0.793140
-0.202089 0.407895 0.296353 -0.770623 0.515549 0.374554 0.399765 0.894454
-0.215181 0.362085 0.263070 -0.997192 0.060488 0.043947 0.423740 0.862173
-0.202089 0.479509 0.155802 -0.770623 0.606067 0.196905 0.496994 0.944863
-0.215181 0.425656 0.138304 -0.997192 0.071108 0.023103 0.509677 0.906676
-0.202089 0.504185 -0.000000 -0.770623 0.637257 0.000000 0.605180 0.962299
-0.215181 0.447561 -0.000000 -0.997192 0.074770 0.000000 0.605180 0.922049
-0.202089 0.479509 -0.155802 -0.770623 0.606067 -0.196905 0.713366 0.944863
-0.215181 0.425656 -0.138304 -0.997192 0.071108 -0.023103 0.700683 0.906676
-0.202089 0.407895 -0.296353 -0.770623 0.515549 -0.374554 0.810595 0.894454
-0.215181 0.362085 -0.263070 -0.997192 0.060488 -0.043947 0.786620 0.862173
-0.202089 0.296353 -0.407895 -0.770623 0.374554 -0.515549 0.887293 0.816414
-0.215181 0.263070 -0.362085 -0.997192 0.043947 -0.060488 0.854545 0.793140
-0.202089 0.155802 -0.479509 -0.770623 0.196905 -0.606067 0.936245 0.718663
-0.215181 0.138304 -0.425656 -0.997192 0.023103 -0.071108 0.897983 0.706502
-0.202089 -0.000000 -0.504185 -0.770623 0.000000 -0.637257 0.953052 0.610699
-0.215181 -0.000000 -0.447561 -0.997192 0.000000 -0.074770 0.912915 0.610699
-0.202089 -0.155802 -0.479509 -0.770623 -0.196905 -0.606067 0.936245 0.502734
-0.215181 -0.138304 -0.425656 -0.997192 -0.023103 -0.071108 0.897983 0.514895
-0.202089 -0.296353 -0.407894 -0.770623 -0.374554 -0.515549 0.887293 0.404983
-0.215182 -0.263070 -0.362085 -0.997192 -0.043947 -0.060488 0.854545 0.428256
-0.202089 -0.407895 -0.296352 -0.770623 -0.515549 -0.374554 0.810594 0.326943
-0.215182 -0.362085 -0.263070 -0.997192 -0.060488 -0.043947 0.786620 0.359224
-0.202089 -0.479509 -0.155801 -0.770623 -0.606067 -0.196905 0.713366 0.276534
-0.215182 -0.425656 -0.138304 -0.997192 -0.071108 -0.023103 0.700682 0.314721
-0.202089 -0.504185 0.000001 -0.770623 -0.637257 0.000000 0.605180 0.259098
-0.215182 -0.447561 0.000000 -0.997192 -0.074770 0.000000 0.605180 0.299348
-0.202089 -0.479509 0.155802 -0.770623 -0.606067 0.196905 0.496993 0.276534
-0.215182 -0.425656 0.138305 -0.997192 -0.071108 0.023103 0.509677 0.314722
-0.202089 -0.407894 0.296353 -0.770623 -0.515549 0.374554 0.399764 0.326944
-0.215182 -0.362084 0.263070 -0.997192 -0.060488 0.043947 0.423740 0.359224
-0.202089 -0.296352 0.407895 -0.770623 -0.374554 0.515549 0.323066 0.404984
-0.215182 -0.263069 0.362085 -0.997192 -0.043947 0.060488 0.355814 0.428257
-0.202089 -0.155801 0.479509 -0.770623 -0.196905 0.606067 0.274114 0.502735
-0.215182 -0.138303 0.425656 -0.997192 -0.023103 0.071108 0.312376 0.514895
-0.154947 0.000000 0.528714 -0.232276 0.000000 0.972625 0.220498 0.610699
-0.154947 0.163382 0.502837 -0.232276 0.300546 0.925016 0.239078 0.729915
-0.154947 0.310770 0.427739 -0.232276 0.571703 0.786859 0.293199 0.837864
-0.154947 0.427739 0.310770 -0.232276 0.786859 0.571703 0.378008 0.924055
-0.154947 0.502837 0.163382 -0.232276 0.925016 0.300546 0.485531 0.979735
-0.154947 0.528714 -0.000000 -0.232276 0.972625 0.000000 0.605180 0.998995
-0.154947 0.502837 -0.163382 -0.232276 0.925016 -0.300546 0.724828 0.979735
-0.154947 0.427739 -0.310770 -0.232276 0.786859 -0.571703 0.832352 0.924055
-0.154947 0.310770 -0.427739 -0.232276 0.571703 -0.786859 0.917161 0.837863
-0.154947 0.163381 -0.502837 -0.232276 0.300546 -0.925016 0.971282 0.729915
-0.154947 -0.000000 -0.528714 -0.232276 0.000000 -0.972625 0.989862 0.610699
-0.154947 -0.163382 -0.502837 -0.232276 -0.300546 -0.925016 0.971282 0.491482
-0.154947 -0.310771 -0.427738 -0.232276 -0.571703 -0.786859 0.917161 0.383533
-0.154947 -0.427739 -0.310770 -0.232276 -0.786859 -0.571703 0.832352 0.297342
-0.154947 -0.502837 -0.163381 -0.232276 -0.925016 -0.300546 0.724828 0.241662
-0.154947 -0.528714 0.000001 -0.232276 -0.972625 0.000000 0.605180 0.222402
-0.154947 -0.502837 0.163382 -0.232276 -0.925016 0.300546 0.485531 0.241662
-0.154947 -0.427738 0.310771 -0.232276 -0.786859 0.571703 0.378007 0.297343
-0.154947 -0.310770 0.427739 -0.232276 -0.571703 0.786859 0.293199 0.383534
-0.154947 -0.163381 0.502837 -0.232276 -0.300546 0.925016 0.239077 0.491483
-0.202089 0.102033 0.314024 -0.993835 -0.034242 -0.105411 0.390848 0.681158
-0.202089 -0.000000 0.330184 -0.993835 0.000000 -0.110843 0.379889 0.610699
-0.202089 0.194077 0.267125 -0.993835 -0.065157 -0.089663 0.422709 0.744831
-0.202089 0.267125 0.194077 -0.993835 -0.089663 -0.065157 0.472471 0.795504
-0.202089 0.314024 0.102033 -0.993835 -0.105411 -0.034242 0.535353 0.828131
-0.202089 0.330184 -0.000000 -0.993835 -0.110843 0.000000 0.605180 0.839393
-0.202089 0.314024 -0.102033 -0.993835 -0.105411 0.034242 0.675007 0.828131
-0.202089 0.267125 -0.194077 -0.993835 -0.089663 0.065157 0.737889 0.795504
-0.202089 0.194077 -0.267125 -0.993835 -0.065157 0.089663 0.787651 0.744831
-0.202089 0.102032 -0.314024 -0.993835 -0.034242 0.105411 0.819511 0.681158
-0.202089 -0.000000 -0.330184 -0.993835 0.000000 0.110843 0.830470 0.610699
-0.202089 -0.102033 -0.314024 -0.993835 0.034242 0.105411 0.819511 0.540239
-0.202089 -0.194078 -0.267124 -0.993835 0.065157 0.089663 0.787651 0.476566
-0.202089 -0.267125 -0.194077 -0.993835 0.089663 0.065157 0.737889 0.425893
-0.202089 -0.314024 -0.102032 -0.993835 0.105411 0.034242 0.675007 0.393266
-0.202089 -0.330184 0.000000 -0.993835 0.110843 0.000000 0.605180 0.382004
-0.202089 -0.314024 0.102033 -0.993835 0.105411 -0.034242 0.535352 0.393266
-0.202089 -0.267124 0.194078 -0.993835 0.089663 -0.065157 0.472471 0.425893
-0.202089 -0.194077 0.267125 -0.993835 0.065157 -0.089663 0.422708 0.476566
-0.202089 -0.102032 0.314024 -0.993835 0.034242 -0.105411 0.390848 0.540239
0.170312 0.427739 0.310770 0.232276 0.786859 0.571703 0.006384 0.795938
-0.154947 0.427739 0.310770 -0.232276 0.786859 0.571703 0.197976 0.795938
-0.154947 -0.310771 -0.427738 -0.232276 -0.571703 -0.786859 0.197976 0.696792
0.170312 -0.310771 -0.427738 0.232276 -0.571703 -0.786859 0.006384 0.696792
0.085365 -0.131956 0.228555 0.942717 -0.166753 0.288858 0.987957 0.895558
0.178744 0.000000 -0.000000 1.000000 0.000000 0.000000 0.928810 0.929706
0.085365 -0.000000 0.263912 0.942717 0.000000 0.333537 0.997107 0.929706
0.085365 0.131956 0.228555 0.942717 0.166753 0.288858 0.987957 0.963855
0.085365 0.228555 0.131956 0.942717 0.288858 0.166753 0.962959 0.988853
0.085365 0.263912 -0.000000 0.942717 0.333537 0.000000 0.928810 0.998003
0.085365 0.228555 -0.131956 0.942717 0.288858 -0.166753 0.894662 0.988853
0.085365 0.131956 -0.228555 0.942717 0.166753 -0.288858 0.869663 0.963855
0.085365 -0.000000 -0.263912 0.942717 0.000000 -0.333537 0.860513 0.929706
0.085365 -0.131956 -0.228555 0.942717 -0.166753 -0.288858 0.869663 0.895558
0.085365 -0.228555 -0.131956 0.942717 -0.288858 -0.166753 0.894662 0.870559
0.085365 -0.263912 -0.000000 0.942717 -0.333537 0.000000 0.928810 0.861409
0.085365 -0.228555 0.131956 0.942717 -0.288858 0.166753 0.962959 0.870559
0.215979 -0.125091 0.095660 0.936308 -0.349162 0.036988 0.672431 0.526826
0.211719 -0.121807 0.167683 0.983184 -0.023682 0.181036 0.721749 0.527987
0.203588 -0.172411 0.255226 0.819544 0.460891 0.340373 0.768085 0.490486
0.203505 -0.201474 0.238454 0.833766 -0.513779 -0.202002 0.758601 0.477886
0.215979 0.020299 0.156163 0.936308 -0.142521 0.320872 0.709973 0.628725
0.211719 0.084314 0.189329 0.983184 0.144932 0.111026 0.733874 0.672264
0.203588 0.134827 0.276926 0.819544 0.525224 -0.228950 0.789896 0.693706
0.203505 0.105770 0.293709 0.833766 -0.431837 0.343944 0.796081 0.679082
0.215979 0.145390 0.060502 0.936308 0.206610 0.283883 0.639998 0.711676
0.211719 0.206121 0.021647 0.983184 0.168615 -0.069979 0.614097 0.754326
0.203588 0.307238 0.021700 0.819544 0.064333 -0.569323 0.623388 0.813544
0.203505 0.307244 0.055255 0.833766 0.081942 0.545946 0.639133 0.811633
0.215979 0.125091 -0.095661 0.939207 0.341899 -0.030580 0.533308 0.692814
0.211719 0.121807 -0.167683 0.983184 0.023682 -0.181036 0.483564 0.691666
0.203588 0.172411 -0.255226 0.819544 -0.460891 -0.340373 0.437050 0.729171
0.203505 0.201474 -0.238454 0.840236 0.513718 0.173376 0.446539 0.741809
0.215979 -0.020299 -0.156163 0.939207 0.144444 -0.311411 0.496436 0.591209
0.211719 -0.084314 -0.189329 0.983184 -0.144932 -0.111026 0.472617 0.547656
0.203588 -0.134827 -0.276926 0.819544 -0.525224 0.228950 0.417015 0.526172
0.203505 -0.105770 -0.293709 0.840236 0.406995 -0.358196 0.410829 0.540675
0.215979 -0.145390 -0.060502 0.939207 -0.197455 -0.280801 0.565819 0.508688
0.211719 -0.206121 -0.021647 0.983184 -0.168615 0.069979 0.591572 0.466477
0.203588 -0.307238 -0.021700 0.819544 -0.064333 0.569323 0.582440 0.407756
0.203505 -0.307244 -0.055255 0.840236 -0.106693 -0.531571 0.566835 0.409620
0.215979 -0.020299 0.156163 0.928159 0.147282 0.341746 0.710582 0.598031
0.215979 -0.027845 0.103918 0.991424 0.024659 -0.128239 0.674845 0.592591
0.215979 0.027845 0.103918 0.991424 -0.024659 -0.128239 0.673659 0.631834
0.215979 0.125091 0.095660 0.928159 0.369610 0.043306 0.667638 0.697887
0.215979 0.076073 0.076073 0.991424 -0.098727 -0.085482 0.653792 0.663925
0.215979 0.103918 0.027845 0.991424 -0.123386 -0.042756 0.619098 0.682279
0.215979 0.145390 -0.060502 0.928159 0.222297 -0.298441 0.558986 0.709846
0.215979 0.103918 -0.027845 0.991424 -0.123386 0.042756 0.581457 0.680998
0.215979 0.076073 -0.076073 0.991424 -0.098727 0.085482 0.548309 0.660115
0.215979 0.020299 -0.156163 0.929106 -0.147954 -0.338878 0.494526 0.621891
0.215979 0.027845 -0.103918 0.991424 -0.024659 0.128239 0.530655 0.626929
0.215979 -0.027845 -0.103918 0.991424 0.024659 0.128239 0.532168 0.587860
0.215979 -0.125091 -0.095661 0.929106 -0.367473 -0.041292 0.538366 0.522325
0.215979 -0.076073 -0.076073 0.991424 0.098727 0.085482 0.552025 0.556037
0.215979 -0.103918 -0.027845 0.991424 0.123386 0.042756 0.586492 0.537831
0.215979 -0.145390 0.060502 0.928159 -0.222297 0.298441 0.646318 0.510996
0.215979 -0.103918 0.027845 0.991424 0.123386 -0.042756 0.623820 0.539018
0.215979 -0.076073 0.076073 0.991424 0.098727 -0.085482 0.657040 0.559582
0.177600 0.000000 -0.000000 1.000000 0.000000 0.000000 0.602795 0.609901
0.203588 -0.134827 0.276926 0.819544 -0.525224 -0.228950 0.792735 0.535553
0.211719 -0.084314 0.189329 0.983184 -0.144932 0.111026 0.736415 0.554975
0.203505 -0.105770 0.293709 0.833766 0.431837 0.343944 0.798493 0.550143
0.203588 0.172412 0.255226 0.819544 -0.460891 0.340373 0.763041 0.737945
0.211719 0.121807 0.167683 0.983184 0.023682 0.181036 0.717810 0.698644
0.203505 0.201474 0.238454 0.833766 0.513779 -0.202002 0.753216 0.750324
0.203588 0.307238 -0.021700 0.819544 0.064333 0.569323 0.571746 0.812278
0.211719 0.206121 -0.021647 0.983184 0.168615 0.069979 0.583273 0.753577
0.203505 0.307244 -0.055255 0.833766 0.081942 -0.545946 0.556152 0.809931
0.203588 0.134826 -0.276926 0.819544 0.525224 0.228950 0.412414 0.683956
0.211719 0.084314 -0.189329 0.983184 0.144932 -0.111026 0.468855 0.664665
0.203505 0.105770 -0.293709 0.835719 -0.424635 -0.348186 0.406668 0.669321
0.203588 -0.172411 -0.255226 0.819544 0.460891 -0.340373 0.443795 0.482334
0.211719 -0.121807 -0.167683 0.983184 -0.023682 -0.181036 0.488611 0.521480
0.203505 -0.201474 -0.238454 0.835719 -0.513871 0.193640 0.453575 0.470070
0.203588 -0.307238 0.021700 0.819544 -0.064333 -0.569323 0.633579 0.409072
0.211719 -0.206121 0.021647 0.983184 -0.168615 -0.069979 0.622153 0.467299
0.203505 -0.307244 0.055255 0.833766 -0.081942 0.545946 0.649019 0.411404
0.159723 -0.138566 0.260267 0.756432 -0.651631 0.056093 0.783636 0.517224
0.159723 -0.156115 0.250135 0.756432 0.277230 0.592364 0.779047 0.508093
0.159723 0.156115 0.250135 0.756432 -0.277230 0.592364 0.774444 0.720762
0.159723 0.138566 0.260267 0.756432 0.651631 0.056093 0.780083 0.712151
0.159723 0.294681 -0.010132 0.756432 0.374401 0.536271 0.592283 0.813611
0.159723 0.294681 0.010132 0.756432 0.374401 -0.536271 0.602544 0.814204
0.159723 0.138565 -0.260267 0.756432 0.651631 -0.056093 0.421497 0.702353
0.159723 0.156115 -0.250135 0.756432 -0.277230 -0.592364 0.426098 0.711505
0.159723 -0.156115 -0.250135 0.756432 0.277230 -0.592364 0.432429 0.499357
0.159723 -0.138565 -0.260267 0.756432 -0.651631 -0.056093 0.426817 0.507899
0.159723 -0.294681 0.010132 0.756432 -0.374401 -0.536271 0.613249 0.407738
0.159723 -0.294681 -0.010132 0.756432 -0.374401 0.536271 0.603087 0.407133
0.161752 -0.088961 0.300367 0.398236 0.761010 0.512101 0.810178 0.571450
0.174183 -0.008456 0.174712 0.535661 0.327403 0.778344 0.740037 0.609879
0.161752 0.215645 0.227226 0.398236 0.824000 -0.402997 0.740408 0.771290
0.174183 0.147077 0.094679 0.535661 0.837764 0.105594 0.671422 0.729111
0.161752 0.304606 -0.073141 0.398236 0.062990 -0.915098 0.531656 0.809268
0.174183 0.155533 -0.080032 0.535661 0.510330 -0.672719 0.533866 0.728646
0.174183 0.008456 -0.174712 0.532426 -0.335795 -0.777001 0.465764 0.609562
0.161752 0.088961 -0.300367 0.388653 -0.757866 -0.523972 0.395032 0.647834
0.174183 -0.147077 -0.094679 0.532426 -0.840785 -0.097690 0.534690 0.491342
0.161752 -0.215645 -0.227226 0.388653 -0.832728 0.394330 0.466341 0.449298
0.161752 -0.304606 0.073141 0.398236 -0.062990 0.915098 0.673197 0.411996
0.174183 -0.155533 0.080033 0.535661 -0.510330 0.672719 0.671218 0.491570
0.176434 0.005162 0.178667 0.565020 -0.496994 0.658559 0.738699 0.617535
0.176434 0.157311 0.084863 0.565020 0.321818 0.759697 0.664081 0.731730
0.176434 0.152149 -0.093804 0.552232 0.823756 0.128208 0.527960 0.723600
0.176434 -0.005162 -0.178667 0.552232 0.522904 -0.649251 0.467172 0.601943
0.176434 -0.157311 -0.084864 0.552232 -0.300821 -0.777490 0.541971 0.488757
0.176434 -0.152150 0.093804 0.565020 -0.818842 -0.101108 0.677130 0.496541
0.161752 -0.215645 0.227226 0.418439 -0.819483 -0.391552 0.746418 0.456628
0.161752 0.088961 0.300367 0.418439 -0.748833 0.513901 0.808446 0.657737
0.161752 0.304606 0.073141 0.418439 0.070620 0.905454 0.663671 0.811812
0.161752 0.215645 -0.227226 0.385357 0.848933 0.361583 0.458594 0.763091
0.161752 -0.088961 -0.300367 0.385357 0.737632 -0.554399 0.398453 0.561705
0.161752 -0.304606 -0.073141 0.385357 -0.111301 -0.916013 0.542518 0.409399
3 0 1 2
3 2 3 0
3 3 2 4
3 4 5 3
3 5 4 6
3 6 7 5
3 7 6 8
3 8 9 7
3 9 8 10
3 10 11 9
3 11 10 12
3 12 13 11
3 13 12 14
3 14 15 13
3 15 14 16
3 16 17 15
3 17 16 18
3 18 19 17
3 19 18 20
3 20 21 19
3 21 20 22
3 22 23 21
3 23 22 24
3 24 25 23
3 25 24 26
3 26 27 25
3 27 26 28
3 28 29 27
3 29 28 30
3 30 31 29
3 32 33 34
3 34 35 32
3 35 34 36
3 36 37 35
3 37 36 38
3 38 39 37
3 39 38 40
3 40 41 39
3 41 40 1
3 1 0 41
3 1 42 43
3 43 2 1
3 2 43 44
3 44 4 2
3 4 44 45
3 45 6 4
3 6 45 46
3 46 8 6
3 8 46 47
3 47 10 8
3 10 47 48
3 48 12 10
3 12 48 49
3 49 14 12
3 14 49 50
3 50 16 14
3 16 50 51
3 51 18 16
3 18 51 52
3 52 20 18
3 20 52 53
3 53 22 20
3 22 53 54
3 54 24 22
3 24 54 55
3 55 26 24
3 26 55 56
3 56 28 26
3 28 56 57
3 57 30 28
3 33 58 59
3 59 34 33
3 34 59 60
3 60 36 34
3 36 60 61
3 61 38 36
3 38 61 62
3 62 40 38
3 40 62 42
3 42 1 40
3 63 64 65
3 65 66 63
3 66 65 67
3 67 68 66
3 68 67 69
3 69 70 68
3 70 69 71
3 71 72 70
3 72 71 73
3 73 74 72
3 74 73 75
3 75 76 74
3 76 75 77
3 77 78 76
3 78 77 79
3 79 80 78
3 80 79 81
3 81 82 80
3 82 81 83
3 83 84 82
3 84 83 85
3 85 86 84
3 86 85 87
3 87 88 86
3 88 87 89
3 89 90 88
3 90 89 91
3 91 92 90
3 92 91 93
3 93 94 92
3 95 96 97
3 97 98 95
3 98 97 99
3 99 100 98
3 100 99 101
3 101 102 100
3 102 101 103
3 103 104 102
3 104 103 64
3 64 63 104
3 64 52 51
3 51 65 64
3 65 51 50
3 50 67 65
3 67 50 49
3 49 69 67
3 69 49 48
3 48 71 69
3 71 48 47
3 47 73 71
3 73 47 46
3 46 75 73
3 75 46 45
3 45 77 75
3 77 45 44
3 44 79 77
3 79 44 43
3 43 81 79
3 81 43 42
3 42 83 81
3 83 42 62
3 62 85 83
3 85 62 61
3 61 87 85
3 87 61 60
3 60 89 87
3 89 60 59
3 59 91 89
3 91 59 58
3 58 93 91
3 96 57 56
3 56 97 96
3 97 56 55
3 55 99 97
3 99 55 54
3 54 101 99
3 101 54 53
3 53 103 101
3 103 53 52
3 52 64 103
3 105 106 107
3 107 108 105
3 106 109 110
3 110 107 106
3 109 111 112
3 112 110 109
3 111 113 114
3 114 112 111
3 113 115 116
3 116 114 113
3 115 117 118
3 118 116 115
3 117 119 120
3 120 118 117
3 119 121 122
3 122 120 119
3 121 123 124
3 124 122 121
3 123 125 126
3 126 124 123
3 125 127 128
3 128 126 125
3 127 129 130
3 130 128 127
3 129 131 132
3 132 130 129
3 131 133 134
3 134 132 131
3 133 135 136
3 136 134 133
3 135 137 138
3 138 136 135
3 137 139 140
3 140 138 137
3 139 141 142
3 142 140 139
3 141 143 144
3 144 142 141
3 143 105 108
3 108 144 143
3 108 107 145
3 145 146 108
3 107 110 147
3 147 145 107
3 110 112 148
3 148 147 110
3 112 114 149
3 149 148 112
3 114 116 150
3 150 149 114
3 116 118 151
3 151 150 116
3 118 120 152
3 152 151 118
3 120 122 153
3 153 152 120
3 122 124 154
3 154 153 122
3 124 126 155
3 155 154 124
3 126 128 156
3 156 155 126
3 128 130 157
3 157 156 128
3 130 132 158
3 158 157 130
3 132 134 159
3 159 158 132
3 134 136 160
3 160 159 134
3 136 138 161
3 161 160 136
3 138 140 162
3 162 161 138
3 140 142 163
3 163 162 140
3 142 144 164
3 164 163 142
3 144 108 146
3 146 164 144
3 105 165 166
3 166 106 105
3 106 166 167
3 167 109 106
3 109 167 168
3 168 111 109
3 111 168 169
3 169 113 111
3 113 169 170
3 170 115 113
3 115 170 171
3 171 117 115
3 117 171 172
3 172 119 117
3 119 172 173
3 173 121 119
3 121 173 174
3 174 123 121
3 123 174 175
3 175 125 123
3 125 175 176
3 176 127 125
3 127 176 177
3 177 129 127
3 129 177 178
3 178 131 129
3 131 178 179
3 179 133 131
3 133 179 180
3 180 135 133
3 135 180 181
3 181 137 135
3 137 181 182
3 182 139 137
3 139 182 183
3 183 141 139
3 141 183 184
3 184 143 141
3 143 184 165
3 165 105 143
3 185 186 187
3 187 188 185
3 189 190 186
3 186 185 189
3 191 192 193
3 193 194 191
3 195 196 197
3 197 198 195
3 199 200 196
3 196 195 199
3 201 202 200
3 200 199 201
3 203 204 205
3 205 206 203
3 207 208 204
3 204 203 207
3 209 210 211
3 211 212 209
3 213 214 209
3 209 212 213
3 215 216 217
3 217 218 215
3 219 220 221
3 221 222 219
3 187 223 224
3 224 188 187
3 225 226 227
3 227 228 225
3 229 230 226
3 226 225 229
3 231 232 230
3 230 229 231
3 233 234 232
3 232 231 233
3 235 236 234
3 234 233 235
3 237 238 236
3 236 235 237
3 239 240 238
3 238 237 239
3 241 242 240
3 240 239 241
3 243 244 242
3 242 241 243
3 245 246 244
3 244 243 245
3 247 248 246
3 246 245 247
3 249 250 248
3 248 247 249
3 251 252 250
3 250 249 251
3 253 254 252
3 252 251 253
3 255 256 254
3 254 253 255
3 257 258 256
3 256 255 257
3 259 260 258
3 258 257 259
3 261 262 260
3 260 259 261
3 263 264 262
3 262 261 263
3 228 227 264
3 264 263 228
3 228 265 266
3 266 225 228
3 225 266 267
3 267 229 225
3 229 267 268
3 268 231 229
3 231 268 269
3 269 233 231
3 233 269 270
3 270 235 233
3 235 270 271
3 271 237 235
3 237 271 272
3 272 239 237
3 239 272 273
3 273 241 239
3 241 273 274
3 274 243 241
3 243 274 275
3 275 245 243
3 245 275 276
3 276 247 245
3 247 276 277
3 277 249 247
3 249 277 278
3 278 251 249
3 251 278 279
3 279 253 251
3 253 279 280
3 280 255 253
3 255 280 281
3 281 257 255
3 257 281 282
3 282 259 257
3 259 282 283
3 283 261 259
3 261 283 284
3 284 263 261
3 263 284 265
3 265 228 263
3 285 286 227
3 227 226 285
3 287 285 226
3 226 230 287
3 288 287 230
3 230 232 288
3 289 288 232
3 232 234 289
3 290 289 234
3 234 236 290
3 291 290 236
3 236 238 291
3 292 291 238
3 238 240 292
3 293 292 240
3 240 242 293
3 294 293 242
3 242 244 294
3 295 294 244
3 244 246 295
3 296 295 246
3 246 248 296
3 297 296 248
3 248 250 297
3 298 297 250
3 250 252 298
3 299 298 252
3 252 254 299
3 300 299 254
3 254 256 300
3 301 300 256
3 256 258 301
3 302 301 258
3 258 260 302
3 303 302 260
3 260 262 303
3 304 303 262
3 262 264 304
3 286 304 264
3 264 227 286
3 305 306 190
3 190 189 305
3 193 306 305
3 305 194 193
3 205 202 201
3 201 206 205
3 307 208 207
3 207 308 307
3 210 307 308
3 308 211 210
3 221 220 216
3 216 215 221
3 224 223 219
3 219 222 224
3 309 310 311
3 311 310 312
3 312 310 313
3 313 310 314
3 314 310 315
3 315 310 316
3 316 310 317
3 317 310 318
3 318 310 319
3 319 310 320
3 320 310 321
3 321 310 309
3 322 323 324
3 324 325 322
3 326 327 328
3 328 329 326
3 330 331 332
3 332 333 330
3 334 335 336
3 336 337 334
3 338 339 340
3 340 341 338
3 342 343 344
3 344 345 342
3 326 346 347
3 347 348 326
3 330 349 350
3 350 351 330
3 334 352 353
3 353 354 334
3 338 355 356
3 356 357 338
3 342 358 359
3 359 360 342
3 322 361 362
3 362 363 322
3 348 364 350
3 350 364 351
3 351 364 353
3 353 364 354
3 354 364 356
3 356 364 357
3 357 364 359
3 359 364 360
3 360 364 362
3 362 364 363
3 363 364 347
3 347 364 348
3 365 366 346
3 346 367 365
3 368 369 349
3 349 370 368
3 371 372 352
3 352 373 371
3 374 375 355
3 355 376 374
3 377 378 358
3 358 379 377
3 380 381 361
3 361 382 380
3 323 366 383
3 383 384 323
3 327 369 385
3 385 386 327
3 331 372 387
3 387 388 331
3 335 375 389
3 389 390 335
3 339 378 391
3 391 392 339
3 343 381 393
3 393 394 343
3 323 322 363
3 327 326 348
3 331 330 351
3 335 334 354
3 339 338 357
3 343 342 360
3 346 366 347
3 349 369 350
3 352 372 353
3 355 375 356
3 358 378 359
3 361 381 362
3 323 363 347
3 347 366 323
3 327 348 350
3 350 369 327
3 331 351 353
3 353 372 331
3 335 354 356
3 356 375 335
3 339 357 359
3 359 378 339
3 343 360 362
3 362 381 343
3 327 386 328
3 368 385 369
3 323 384 324
3 365 383 366
3 343 394 344
3 380 393 381
3 339 392 340
3 377 391 378
3 335 390 336
3 374 389 375
3 371 387 372
3 331 388 332
3 395 367 346
3 346 396 395
3 397 370 349
3 349 398 397
3 399 373 352
3 352 400 399
3 401 402 376
3 376 355 401
3 403 404 379
3 379 358 403
3 405 382 361
3 361 406 405
3 396 346 326
3 326 407 396
3 398 349 330
3 330 408 398
3 400 352 334
3 334 409 400
3 401 355 338
3 338 410 401
3 403 358 342
3 342 411 403
3 406 361 322
3 322 412 406
3 413 412 322
3 322 325 413
3 414 407 326
3 326 329 414
3 415 408 330
3 330 333 415
3 409 334 337
3 337 416 409
3 410 338 341
3 341 417 410
3 411 342 345
3 345 418 411
