ply
format ascii 1.0
comment Created by Blender 3.0.1 - www.blender.org
element vertex 352
property float x
property float y
property float z
property float nx
property float ny
property float nz
property float s
property float t
element face 485
property list uchar uint vertex_indices
end_header
0.186035 -0.000000 0.317543 0.909635 0.000000 0.415326 0.787676 0.179985
0.193992 -0.000000 0.300117 0.953337 0.000000 -0.301828 0.787691 0.172478
0.193989 0.092754 0.285426 0.953337 -0.093204 -0.287057 0.750805 0.172463
0.186032 0.098139 0.301999 0.909635 0.128391 0.395001 0.750798 0.179970
0.193980 0.176429 0.242792 0.953368 -0.177282 -0.244209 0.713749 0.172455
0.186022 0.186671 0.256890 0.909635 0.244240 0.335978 0.713745 0.179963
0.193965 0.242834 0.176387 0.953368 -0.244026 -0.177496 0.676577 0.172452
0.186007 0.256930 0.186630 0.909604 0.336161 0.244026 0.676575 0.179960
0.193947 0.285468 0.092712 0.953398 -0.286874 -0.093417 0.639346 0.172448
0.185988 0.302039 0.098098 0.909574 0.395184 0.128208 0.639345 0.179957
0.193927 0.300159 -0.000042 0.953398 -0.301614 -0.000183 0.602108 0.172448
0.185967 0.317583 -0.000040 0.909543 0.415540 -0.000183 0.602108 0.179956
0.193907 0.285468 -0.092796 0.953429 -0.286874 0.092990 0.564912 0.172450
0.185946 0.302039 -0.098179 0.909543 0.395184 -0.128605 0.564912 0.179958
0.193889 0.242834 -0.176471 0.953459 -0.244026 0.177068 0.527800 0.172457
0.185926 0.256930 -0.186711 0.909513 0.336161 -0.244423 0.527801 0.179965
0.193875 0.176429 -0.242875 0.953459 -0.177282 0.243812 0.490813 0.172465
0.185911 0.186671 -0.256970 0.909482 0.244240 -0.336375 0.490817 0.179972
0.193865 0.092754 -0.285510 0.953459 -0.093204 0.286660 0.453991 0.172480
0.185902 0.098139 -0.302080 0.909482 0.128391 -0.395398 0.453999 0.179986
0.193862 -0.000000 -0.300201 0.953459 0.000000 0.301431 0.417366 0.172505
0.185898 -0.000000 -0.317623 0.909482 0.000000 -0.415723 0.417379 0.180011
0.193865 -0.092754 -0.285510 0.953459 0.093204 0.286660 0.380963 0.172558
0.185902 -0.098139 -0.302080 0.909482 -0.128391 -0.395398 0.380976 0.180066
0.193875 -0.176429 -0.242875 0.953459 0.177282 0.243812 0.344778 0.172702
0.185911 -0.186671 -0.256970 0.909482 -0.244240 -0.336375 0.344751 0.180220
0.193889 -0.242834 -0.176471 0.953459 0.244026 0.177068 0.308742 0.172893
0.185926 -0.256930 -0.186711 0.909513 -0.336161 -0.244423 0.308538 0.180444
0.193907 -0.285468 -0.092796 0.953429 0.286874 0.092990 0.272677 0.172686
0.185946 -0.302040 -0.098178 0.909543 -0.395184 -0.128605 0.271929 0.180278
0.193927 -0.300159 -0.000042 0.953398 0.301614 -0.000183 0.236631 0.169644
0.185967 -0.317583 -0.000040 0.909574 -0.415540 -0.000183 0.234442 0.176839
0.185967 -0.317583 -0.000040 0.909574 -0.415540 -0.000183 0.971439 0.176976
0.193927 -0.300159 -0.000042 0.953398 0.301614 -0.000183 0.969267 0.169775
0.193947 -0.285468 0.092713 0.953398 0.286874 -0.093417 0.933165 0.172764
0.185988 -0.302039 0.098099 0.909574 -0.395184 0.128208 0.933898 0.180351
0.193965 -0.242833 0.176387 0.953368 0.244026 -0.177496 0.896941 0.172964
0.186007 -0.256930 0.186631 0.909604 -0.336161 0.244026 0.897150 0.180512
0.193980 -0.176429 0.242792 0.953368 0.177282 -0.244209 0.860728 0.172605
0.186022 -0.186670 0.256890 0.909635 -0.244240 0.335978 0.860759 0.180123
0.193989 -0.092754 0.285426 0.953337 0.093204 -0.287057 0.824350 0.172512
0.186032 -0.098138 0.301999 0.909635 -0.128391 0.395001 0.824329 0.180021
0.101586 -0.000000 0.262097 0.134342 0.000000 -0.990905 0.787718 0.127790
0.101584 0.080999 0.249268 0.134373 -0.306192 -0.942412 0.750818 0.127778
0.101575 0.154070 0.212037 0.134404 -0.582415 -0.801660 0.713755 0.127771
0.101563 0.212059 0.154048 0.134434 -0.801630 -0.582446 0.676580 0.127767
0.101547 0.249290 0.080977 0.134495 -0.942381 -0.306223 0.639347 0.127764
0.101530 0.262119 -0.000022 0.134556 -0.990875 0.000000 0.602108 0.127764
0.101512 0.249290 -0.081021 0.134617 -0.942381 0.306162 0.564910 0.127766
0.101496 0.212059 -0.154092 0.134678 -0.801630 0.582385 0.527798 0.127773
0.101484 0.154070 -0.212080 0.134739 -0.582415 0.801599 0.490810 0.127782
0.101476 0.080999 -0.249312 0.134770 -0.306192 0.942351 0.453982 0.127796
0.101473 -0.000000 -0.262141 0.134770 0.000000 0.990844 0.417349 0.127817
0.101476 -0.080999 -0.249312 0.134770 0.306192 0.942351 0.380944 0.127849
0.101484 -0.154070 -0.212080 0.134739 0.582415 0.801599 0.344886 0.127887
0.101496 -0.212059 -0.154091 0.134678 0.801630 0.582385 0.309780 0.127800
0.101512 -0.249290 -0.081021 0.134617 0.942381 0.306162 0.276023 0.127706
0.101530 -0.262119 -0.000022 0.134556 0.990875 0.000000 0.243713 0.127117
0.101530 -0.262119 -0.000022 0.134556 0.990875 0.000000 0.962272 0.127208
0.101547 -0.249290 0.080978 0.134495 0.942381 -0.306223 0.929921 0.127772
0.101563 -0.212058 0.154048 0.134434 0.801630 -0.582446 0.896071 0.127845
0.101576 -0.154069 0.212037 0.134404 0.582415 -0.801660 0.860751 0.127831
0.101584 -0.080999 0.249268 0.134373 0.306192 -0.942412 0.824397 0.127808
-0.187257 -0.000000 -0.317542 -0.909635 0.000000 -0.415326 0.417308 0.009596
-0.195214 -0.000000 -0.300116 -0.907590 0.000000 0.419843 0.417324 0.017107
-0.195211 0.092754 -0.285426 -0.907590 -0.129673 0.399304 0.453971 0.017091
-0.187254 0.098139 -0.301999 -0.909635 0.128391 -0.395001 0.453964 0.009582
-0.195202 0.176429 -0.242791 -0.907590 -0.246651 0.339702 0.490801 0.017079
-0.187244 0.186671 -0.256889 -0.909635 0.244240 -0.335978 0.490798 0.009570
-0.195187 0.242834 -0.176387 -0.907620 -0.339488 0.246864 0.527790 0.017070
-0.187229 0.256930 -0.186630 -0.909604 0.336161 -0.244026 0.527789 0.009562
-0.195169 0.285468 -0.092712 -0.907651 -0.399091 0.129856 0.564906 0.017065
-0.187210 0.302039 -0.098098 -0.909574 0.395184 -0.128208 0.564905 0.009557
-0.195149 0.300159 0.000042 -0.907682 -0.419630 0.000183 0.602107 0.017062
-0.187189 0.317583 0.000041 -0.909574 0.415540 0.000183 0.602107 0.009555
-0.195129 0.285468 0.092797 -0.907682 -0.399091 -0.129460 0.639348 0.017063
-0.187167 0.302039 0.098179 -0.909543 0.395184 0.128605 0.639349 0.009555
-0.195111 0.242834 0.176471 -0.907712 -0.339488 -0.246467 0.676583 0.017065
-0.187148 0.256930 0.186711 -0.909513 0.336161 0.244423 0.676584 0.009557
-0.195097 0.176429 0.242876 -0.907743 -0.246651 -0.339305 0.713760 0.017069
-0.187133 0.186671 0.256971 -0.909482 0.244240 0.336375 0.713764 0.009561
-0.195087 0.092754 0.285510 -0.907743 -0.129673 -0.398907 0.750832 0.017075
-0.187123 0.098138 0.302080 -0.909482 0.128391 0.395398 0.750840 0.009566
-0.195084 -0.000000 0.300201 -0.907743 0.000000 -0.419446 0.787751 0.017082
-0.187120 -0.000000 0.317624 -0.909482 0.000000 0.415723 0.787768 0.009572
-0.195087 -0.092754 0.285510 -0.907743 0.129673 -0.398907 0.824486 0.017081
-0.187123 -0.098139 0.302080 -0.909482 -0.128391 0.395398 0.824534 0.009566
-0.195097 -0.176429 0.242876 -0.907743 0.246651 -0.339305 0.861041 0.017042
-0.187133 -0.186671 0.256971 -0.909482 -0.244240 0.336375 0.861204 0.009527
-0.195111 -0.242834 0.176471 -0.907712 0.339488 -0.246467 0.897765 0.016748
-0.187148 -0.256930 0.186711 -0.909513 -0.336161 0.244423 0.897975 0.009230
-0.195129 -0.285468 0.092796 -0.907682 0.399091 -0.129460 0.934623 0.016816
-0.187167 -0.302039 0.098179 -0.909543 -0.395184 0.128605 0.935037 0.009248
-0.195149 -0.300159 0.000042 -0.907682 0.419630 0.000183 0.971067 0.018496
-0.187189 -0.317583 0.000040 -0.909574 -0.415540 0.000183 0.972777 0.011195
-0.187189 -0.317583 0.000040 -0.909574 -0.415540 0.000183 0.233213 0.011139
-0.195149 -0.300159 0.000042 -0.907682 0.419630 0.000183 0.234923 0.018434
-0.195169 -0.285468 -0.092712 -0.907651 0.399091 0.129856 0.271324 0.016762
-0.187210 -0.302039 -0.098098 -0.909574 -0.395184 -0.128208 0.270912 0.009195
-0.195187 -0.242833 -0.176387 -0.907620 0.339488 0.246864 0.308056 0.016725
-0.187229 -0.256930 -0.186630 -0.909604 -0.336161 -0.244026 0.307848 0.009207
-0.195202 -0.176429 -0.242791 -0.907590 0.246651 0.339702 0.344577 0.017062
-0.187244 -0.186670 -0.256890 -0.909635 -0.244240 -0.335978 0.344414 0.009547
-0.195211 -0.092754 -0.285426 -0.907590 0.129673 0.399304 0.380870 0.017114
-0.187254 -0.098138 -0.301999 -0.909635 -0.128391 -0.395001 0.380824 0.009598
0.196151 -0.000000 0.357563 0.999969 0.000000 0.001221 0.912849 0.610699
0.196147 0.110506 0.340060 0.999969 0.000427 0.001160 0.898031 0.706631
0.186731 0.124487 0.383091 0.791223 0.189001 0.581530 0.936293 0.718895
0.186735 0.000000 0.402808 0.791253 0.000000 0.611469 0.953057 0.610699
0.196136 0.210195 0.289266 0.999969 0.000855 0.000946 0.854833 0.793561
0.186719 0.236788 0.325871 0.791223 0.359508 0.494644 0.887432 0.816927
0.196119 0.289308 0.210153 0.999969 0.001160 0.000641 0.787055 0.863060
0.186699 0.325911 0.236748 0.791192 0.494827 0.359325 0.810784 0.895281
0.196097 0.340103 0.110464 0.999969 0.001373 0.000214 0.701011 0.908017
0.186675 0.383131 0.124447 0.791162 0.581713 0.188818 0.713502 0.945950
0.196073 0.357605 -0.000042 0.999969 0.001434 -0.000214 0.605180 0.923582
0.186648 0.402848 -0.000040 0.791101 0.611652 -0.000153 0.605180 0.963488
0.196050 0.340103 -0.110548 0.999969 0.001373 -0.000641 0.509349 0.908017
0.186621 0.383131 -0.124527 0.791070 0.581713 -0.189154 0.496857 0.945950
0.196028 0.289308 -0.210237 0.999969 0.001160 -0.001068 0.423303 0.863060
0.186597 0.325911 -0.236829 0.791040 0.494827 -0.359691 0.399575 0.895281
0.196011 0.210195 -0.289351 0.999969 0.000855 -0.001373 0.355526 0.793561
0.186578 0.236788 -0.325951 0.791009 0.359508 -0.494980 0.322927 0.816927
0.196000 0.110506 -0.340145 0.999969 0.000427 -0.001587 0.312328 0.706631
0.186565 0.124487 -0.383172 0.790979 0.189001 -0.581866 0.274065 0.718895
0.195996 -0.000000 -0.357647 0.999969 0.000000 -0.001679 0.297509 0.610699
0.186561 -0.000000 -0.402888 0.790979 0.000000 -0.611805 0.257302 0.610699
0.196000 -0.110506 -0.340145 0.999969 -0.000427 -0.001587 0.312328 0.514766
0.186565 -0.124487 -0.383172 0.790979 -0.189001 -0.581866 0.274065 0.502502
0.196011 -0.210195 -0.289351 0.999969 -0.000855 -0.001373 0.355526 0.427835
0.186578 -0.236788 -0.325951 0.791009 -0.359508 -0.494980 0.322927 0.404470
0.196028 -0.289309 -0.210237 0.999969 -0.001160 -0.001068 0.423304 0.358336
0.186597 -0.325911 -0.236828 0.791040 -0.494827 -0.359691 0.399576 0.326115
0.196050 -0.340103 -0.110548 0.999969 -0.001373 -0.000641 0.509349 0.313379
0.186621 -0.383131 -0.124527 0.791070 -0.581713 -0.189154 0.496857 0.275446
0.196073 -0.357605 -0.000042 0.999969 -0.001434 -0.000214 0.605180 0.297815
0.186648 -0.402848 -0.000040 0.791101 -0.611652 -0.000153 0.605180 0.257908
0.196097 -0.340102 0.110464 0.999969 -0.001373 0.000214 0.701011 0.313379
0.186675 -0.383131 0.124447 0.791162 -0.581713 0.188818 0.713503 0.275446
0.196119 -0.289308 0.210153 0.999969 -0.001160 0.000641 0.787056 0.358337
0.186699 -0.325911 0.236748 0.791192 -0.494827 0.359325 0.810784 0.326116
0.196136 -0.210195 0.289266 0.999969 -0.000855 0.000946 0.854833 0.427836
0.186719 -0.236788 0.325871 0.791223 -0.359508 0.494644 0.887432 0.404470
0.196147 -0.110505 0.340060 0.999969 -0.000427 0.001160 0.898031 0.514767
0.186731 -0.124486 0.383091 0.791223 -0.189001 0.581530 0.936294 0.502502
0.152797 0.130543 0.401738 0.252815 0.298990 0.920133 0.968687 0.729248
0.152802 0.000000 0.422414 0.252846 0.000000 0.967498 0.987076 0.610699
0.152784 0.248308 0.341733 0.252785 0.568712 0.782708 0.915075 0.836683
0.152764 0.341766 0.248275 0.252754 0.782769 0.568651 0.830947 0.922581
0.152739 0.401771 0.130510 0.252693 0.920194 0.298929 0.724136 0.978146
0.152711 0.422447 -0.000033 0.252632 0.967559 -0.000031 0.605180 0.997383
0.152682 0.401771 -0.130576 0.252571 0.920194 -0.299020 0.486223 0.978146
0.152657 0.341766 -0.248341 0.252510 0.782769 -0.568743 0.379412 0.922581
0.152637 0.248308 -0.341800 0.252449 0.568712 -0.782800 0.295284 0.836683
0.152624 0.130543 -0.401804 0.252419 0.298990 -0.920255 0.241672 0.729248
0.152619 -0.000000 -0.422480 0.252419 0.000000 -0.967589 0.223283 0.610699
0.152624 -0.130543 -0.401804 0.252419 -0.298990 -0.920255 0.241672 0.492148
0.152637 -0.248308 -0.341799 0.252449 -0.568712 -0.782800 0.295284 0.384713
0.152657 -0.341767 -0.248341 0.252510 -0.782769 -0.568743 0.379413 0.298815
0.152682 -0.401771 -0.130576 0.252571 -0.920194 -0.299020 0.486223 0.243250
0.152711 -0.422447 -0.000033 0.252632 -0.967559 -0.000031 0.605180 0.224013
0.152739 -0.401770 0.130511 0.252693 -0.920194 0.298929 0.724137 0.243250
0.152764 -0.341766 0.248275 0.252754 -0.782769 0.568651 0.830947 0.298816
0.152784 -0.248307 0.341734 0.252785 -0.568712 0.782708 0.915075 0.384714
0.152797 -0.130543 0.401738 0.252815 -0.298990 0.920133 0.968687 0.492149
0.186035 -0.000000 0.317543 0.969481 0.000000 -0.245033 0.876730 0.610699
0.186032 0.098139 0.301999 0.969512 -0.075655 -0.233039 0.863614 0.695730
0.186022 0.186671 0.256890 0.969512 -0.143895 -0.198279 0.825411 0.772722
0.186007 0.256930 0.186630 0.969512 -0.198065 -0.144108 0.765547 0.834199
0.185988 0.302039 0.098098 0.969543 -0.232856 -0.075869 0.689645 0.873917
0.185967 0.317583 -0.000040 0.969543 -0.244819 -0.000183 0.605180 0.887657
0.185946 0.302039 -0.098179 0.969573 -0.232856 0.075442 0.520714 0.873917
0.185926 0.256930 -0.186711 0.969573 -0.198065 0.143681 0.444812 0.834199
0.185911 0.186671 -0.256970 0.969604 -0.143895 0.197851 0.384948 0.772722
0.185901 0.098138 -0.302080 0.969604 -0.075655 0.232643 0.346744 0.695729
0.185898 -0.000000 -0.317623 0.969604 0.000000 0.244606 0.333628 0.610699
0.185901 -0.098139 -0.302080 0.969604 0.075655 0.232643 0.346744 0.525667
0.185911 -0.186671 -0.256970 0.969604 0.143895 0.197851 0.384948 0.448674
0.185926 -0.256930 -0.186711 0.969573 0.198065 0.143681 0.444813 0.387197
0.185946 -0.302040 -0.098179 0.969573 0.232856 0.075442 0.520714 0.347479
0.185967 -0.317583 -0.000040 0.969543 0.244819 -0.000183 0.605180 0.333739
0.185988 -0.302039 0.098099 0.969543 0.232856 -0.075869 0.689646 0.347479
0.186007 -0.256930 0.186631 0.969512 0.198065 -0.144108 0.765547 0.387198
0.186022 -0.186670 0.256890 0.969512 0.143895 -0.198279 0.825411 0.448675
0.186032 -0.098138 0.301999 0.969512 0.075655 -0.233039 0.863615 0.525668
0.152797 0.130543 0.401738 0.252815 0.298990 0.920133 0.002559 0.601964
-0.152624 0.130543 0.401804 -0.252419 0.298990 0.920255 0.209482 0.601964
-0.152619 0.000000 0.422480 -0.252419 0.000000 0.967589 0.209482 0.502690
0.152802 0.000000 0.422414 0.252846 0.000000 0.967498 0.002559 0.502690
0.152784 0.248308 0.341733 0.252785 0.568712 0.782708 0.002559 0.701099
-0.152637 0.248308 0.341800 -0.252449 0.568712 0.782800 0.209482 0.701099
0.152711 0.422447 -0.000033 0.252632 0.967559 -0.000031 0.002559 0.997790
-0.152711 0.422447 0.000033 -0.252632 0.967559 0.000031 0.209482 0.997790
-0.152682 0.401771 0.130576 -0.252571 0.920194 0.299020 0.209482 0.898979
0.152739 0.401771 0.130510 0.252693 0.920194 0.298929 0.002559 0.898979
0.152682 0.401771 -0.130576 0.252571 0.920194 -0.299020 0.002559 0.104024
-0.152739 0.401771 -0.130510 -0.252693 0.920194 -0.298929 0.209482 0.104024
-0.152711 0.422447 0.000033 -0.252632 0.967559 0.000031 0.209482 0.005231
0.152711 0.422447 -0.000033 0.252632 0.967559 -0.000031 0.002559 0.005231
0.152657 0.341766 -0.248341 0.252510 0.782769 -0.568743 0.002559 0.202859
-0.152764 0.341766 -0.248275 -0.252754 0.782769 -0.568651 0.209482 0.202859
0.152637 0.248308 -0.341800 0.252449 0.568712 -0.782800 0.002559 0.301787
-0.152785 0.248308 -0.341733 -0.252785 0.568712 -0.782708 0.209482 0.301787
0.152619 -0.000000 -0.422480 0.252419 0.000000 -0.967589 0.002559 0.500050
-0.152802 -0.000000 -0.422414 -0.252846 0.000000 -0.967498 0.209482 0.500050
-0.152797 0.130543 -0.401738 -0.252815 0.298990 -0.920133 0.209482 0.400845
0.152624 0.130543 -0.401804 0.252419 0.298990 -0.920255 0.002559 0.400845
0.152624 -0.130543 -0.401804 0.252419 -0.298990 -0.920255 0.002559 0.599392
-0.152797 -0.130543 -0.401737 -0.252815 -0.298990 -0.920133 0.209482 0.599392
-0.152739 -0.401771 -0.130510 -0.252693 -0.920194 -0.298929 0.209482 0.897808
-0.152764 -0.341767 -0.248275 -0.252754 -0.782769 -0.568651 0.209482 0.798330
0.152657 -0.341767 -0.248341 0.252510 -0.782769 -0.568743 0.002559 0.798330
0.152682 -0.401771 -0.130576 0.252571 -0.920194 -0.299020 0.002559 0.897808
0.152711 -0.422447 -0.000033 0.252632 -0.967559 -0.000031 0.002559 0.997218
-0.152711 -0.422447 0.000033 -0.252632 -0.967559 0.000031 0.209482 0.997218
0.152739 -0.401770 0.130511 0.252693 -0.920194 0.298929 0.002559 0.104867
-0.152682 -0.401770 0.130577 -0.252571 -0.920194 0.299020 0.209482 0.104867
-0.152711 -0.422447 0.000033 -0.252632 -0.967559 0.000031 0.209482 0.005461
0.152711 -0.422447 -0.000033 0.252632 -0.967559 -0.000031 0.002559 0.005461
-0.152637 -0.248307 0.341800 -0.252449 -0.568712 0.782800 0.209482 0.303832
-0.152657 -0.341766 0.248341 -0.252510 -0.782769 0.568743 0.209482 0.204337
0.152764 -0.341766 0.248275 0.252754 -0.782769 0.568651 0.002559 0.204336
0.152784 -0.248307 0.341734 0.252785 -0.568712 0.782708 0.002559 0.303832
-0.152624 -0.130543 0.401804 -0.252419 -0.298990 0.920255 0.209482 0.403300
0.152797 -0.130543 0.401738 0.252815 -0.298990 0.920133 0.002559 0.403300
-0.186565 0.124487 0.383172 -0.790979 0.189001 0.581866 0.274079 0.718896
-0.196000 0.110506 0.340145 -0.999969 0.000122 0.000641 0.312344 0.706630
-0.195996 -0.000000 0.357647 -0.999969 0.000000 0.000671 0.297529 0.610699
-0.186561 -0.000000 0.402888 -0.790979 0.000000 0.611805 0.257318 0.610699
-0.186578 0.236788 0.325951 -0.791009 0.359508 0.494980 0.322934 0.816931
-0.196011 0.210195 0.289351 -0.999969 0.000244 0.000580 0.355533 0.793563
-0.186597 0.325911 0.236828 -0.791040 0.494827 0.359691 0.399577 0.895292
-0.196028 0.289308 0.210237 -0.999969 0.000366 0.000488 0.423303 0.863071
-0.186621 0.383131 0.124527 -0.791070 0.581713 0.189154 0.496856 0.945968
-0.196049 0.340103 0.110548 -0.999969 0.000427 0.000336 0.509346 0.908038
-0.186648 0.402848 0.000040 -0.791101 0.611652 0.000153 0.605180 0.963509
-0.196073 0.357605 0.000042 -0.999969 0.000458 0.000214 0.605180 0.923607
-0.186675 0.383131 -0.124447 -0.791162 0.581713 -0.188818 0.713503 0.945968
-0.196097 0.340103 -0.110464 -0.999969 0.000427 0.000061 0.701014 0.908038
-0.186699 0.325911 -0.236748 -0.791192 0.494827 -0.359325 0.810782 0.895292
-0.196119 0.289308 -0.210153 -0.999969 0.000366 -0.000031 0.787057 0.863071
-0.186719 0.236788 -0.325871 -0.791223 0.359508 -0.494644 0.887425 0.816931
-0.196136 0.210195 -0.289266 -0.999969 0.000244 -0.000153 0.854827 0.793563
-0.186731 0.124487 -0.383091 -0.791223 0.189001 -0.581530 0.936281 0.718896
-0.196147 0.110506 -0.340060 -1.000000 0.000122 -0.000214 0.898015 0.706629
-0.186735 -0.000000 -0.402808 -0.791253 0.000000 -0.611469 0.953042 0.610699
-0.196151 -0.000000 -0.357563 -0.999969 0.000000 -0.000244 0.912830 0.610699
-0.186731 -0.124487 -0.383091 -0.791223 -0.189001 -0.581530 0.936281 0.502501
-0.196147 -0.110506 -0.340060 -1.000000 -0.000122 -0.000214 0.898015 0.514767
-0.186719 -0.236788 -0.325870 -0.791223 -0.359508 -0.494644 0.887425 0.404465
-0.196136 -0.210195 -0.289266 -0.999969 -0.000244 -0.000153 0.854826 0.427833
-0.186699 -0.325911 -0.236748 -0.791192 -0.494827 -0.359325 0.810782 0.326105
-0.196119 -0.289309 -0.210152 -0.999969 -0.000366 -0.000031 0.787057 0.358325
-0.186675 -0.383131 -0.124446 -0.791162 -0.581713 -0.188818 0.713503 0.275428
-0.196097 -0.340103 -0.110463 -0.999969 -0.000427 0.000061 0.701014 0.313358
-0.186648 -0.402848 0.000041 -0.791101 -0.611652 0.000153 0.605180 0.257888
-0.196073 -0.357605 0.000043 -0.999969 -0.000458 0.000214 0.605180 0.297789
-0.186621 -0.383131 0.124528 -0.791070 -0.581713 0.189154 0.496856 0.275429
-0.196050 -0.340102 0.110549 -0.999969 -0.000427 0.000336 0.509345 0.313358
-0.186597 -0.325911 0.236829 -0.791040 -0.494827 0.359691 0.399577 0.326105
-0.196028 -0.289308 0.210238 -0.999969 -0.000366 0.000488 0.423302 0.358326
-0.186578 -0.236788 0.325952 -0.791009 -0.359508 0.494980 0.322934 0.404466
-0.196011 -0.210195 0.289351 -0.999969 -0.000244 0.000580 0.355533 0.427834
-0.186565 -0.124486 0.383172 -0.790979 -0.189001 0.581866 0.274078 0.502502
-0.196000 -0.110505 0.340145 -0.999969 -0.000122 0.000641 0.312344 0.514768
-0.152619 0.000000 0.422480 -0.252419 0.000000 0.967589 0.223298 0.610699
-0.152624 0.130543 0.401804 -0.252419 0.298990 0.920255 0.241684 0.729248
-0.152637 0.248308 0.341800 -0.252449 0.568712 0.782800 0.295290 0.836686
-0.152657 0.341766 0.248341 -0.252510 0.782769 0.568743 0.379413 0.922590
-0.152682 0.401771 0.130576 -0.252571 0.920194 0.299020 0.486221 0.978163
-0.152711 0.422447 0.000033 -0.252632 0.967559 0.000031 0.605180 0.997403
-0.152739 0.401771 -0.130510 -0.252693 0.920194 -0.298929 0.724139 0.978163
-0.152764 0.341766 -0.248275 -0.252754 0.782769 -0.568651 0.830947 0.922590
-0.152785 0.248308 -0.341733 -0.252785 0.568712 -0.782708 0.915070 0.836685
-0.152797 0.130543 -0.401738 -0.252815 0.298990 -0.920133 0.968675 0.729248
-0.152802 -0.000000 -0.422414 -0.252846 0.000000 -0.967498 0.987061 0.610699
-0.152797 -0.130543 -0.401737 -0.252815 -0.298990 -0.920133 0.968675 0.492149
-0.152784 -0.248308 -0.341733 -0.252785 -0.568712 -0.782708 0.915069 0.384711
-0.152764 -0.341767 -0.248275 -0.252754 -0.782769 -0.568651 0.830947 0.298806
-0.152739 -0.401771 -0.130510 -0.252693 -0.920194 -0.298929 0.724138 0.243233
-0.152711 -0.422447 0.000033 -0.252632 -0.967559 0.000031 0.605180 0.223994
-0.152682 -0.401770 0.130577 -0.252571 -0.920194 0.299020 0.486221 0.243233
-0.152657 -0.341766 0.248341 -0.252510 -0.782769 0.568743 0.379412 0.298807
-0.152637 -0.248307 0.341800 -0.252449 -0.568712 0.782800 0.295290 0.384711
-0.152624 -0.130543 0.401804 -0.252419 -0.298990 0.920255 0.241684 0.492150
-0.185807 0.098139 0.302080 -0.969054 -0.076296 -0.234687 0.346784 0.695726
-0.185804 -0.000000 0.317623 -0.969054 0.000000 -0.246773 0.333672 0.610699
-0.185817 0.186671 0.256970 -0.969054 -0.145146 -0.199591 0.384977 0.772718
-0.185832 0.256930 0.186711 -0.969024 -0.199805 -0.144963 0.444829 0.834199
-0.185851 0.302039 0.098179 -0.969024 -0.234870 -0.076113 0.520721 0.873924
-0.185872 0.317583 0.000040 -0.968993 -0.246986 0.000183 0.605180 0.887667
-0.185894 0.302039 -0.098098 -0.968993 -0.234870 0.076510 0.689639 0.873924
-0.185913 0.256930 -0.186630 -0.968963 -0.199805 0.145360 0.765531 0.834199
-0.185928 0.186671 -0.256890 -0.968963 -0.145146 0.200018 0.825383 0.772718
-0.185938 0.098138 -0.301999 -0.968963 -0.076296 0.235084 0.863575 0.695725
-0.185941 -0.000000 -0.317543 -0.968963 0.000000 0.247169 0.876687 0.610699
-0.185938 -0.098139 -0.301999 -0.968963 0.076296 0.235084 0.863575 0.525671
-0.185928 -0.186671 -0.256890 -0.968963 0.145146 0.200018 0.825382 0.448678
-0.185913 -0.256930 -0.186630 -0.968963 0.199805 0.145360 0.765531 0.387197
-0.185894 -0.302039 -0.098098 -0.968993 0.234870 0.076510 0.689639 0.347472
-0.185872 -0.317583 0.000041 -0.968993 0.246986 0.000183 0.605180 0.333729
-0.185851 -0.302039 0.098179 -0.969024 0.234870 -0.076113 0.520720 0.347472
-0.185832 -0.256930 0.186711 -0.969024 0.199805 -0.144963 0.444829 0.387197
-0.185817 -0.186670 0.256970 -0.969054 0.145146 -0.199591 0.384977 0.448679
-0.185807 -0.098138 0.302080 -0.969054 0.076296 -0.234687 0.346784 0.525672
0.152764 0.341766 0.248275 0.252754 0.782769 0.568651 0.002559 0.800096
-0.152657 0.341766 0.248341 -0.252510 0.782769 0.568743 0.209482 0.800096
-0.152784 -0.248308 -0.341733 -0.252785 -0.568712 -0.782708 0.209482 0.698838
0.152637 -0.248308 -0.341799 0.252449 -0.568712 -0.782800 0.002559 0.698838
0.011203 -0.126920 0.219830 0.966704 -0.127995 0.221503 0.987957 0.895558
0.078388 0.000000 -0.000017 1.000000 0.000000 -0.000214 0.928810 0.929706
0.011211 -0.000000 0.253838 0.966704 0.000000 0.255806 0.997107 0.929706
0.011203 0.126920 0.219830 0.966704 0.127995 0.221503 0.987957 0.963855
0.011183 0.219832 0.126918 0.966674 0.221717 0.127781 0.962959 0.988853
0.011156 0.253840 -0.000003 0.966643 0.256020 -0.000183 0.928810 0.998003
0.011128 0.219832 -0.126923 0.966613 0.221717 -0.128208 0.894662 0.988853
0.011108 0.126920 -0.219835 0.966613 0.127995 -0.221931 0.869663 0.963855
0.011101 -0.000000 -0.253843 0.966613 0.000000 -0.256233 0.860513 0.929706
0.011108 -0.126920 -0.219835 0.966613 -0.127995 -0.221931 0.869663 0.895558
0.011128 -0.219832 -0.126923 0.966613 -0.221717 -0.128208 0.894662 0.870559
0.011156 -0.253840 -0.000002 0.966643 -0.256020 -0.000183 0.928810 0.861409
0.011183 -0.219832 0.126918 0.966674 -0.221717 0.127781 0.962959 0.870559
0.122334 -0.099347 -0.000026 0.991668 -0.128422 -0.006348 0.602649 0.528097
0.122314 -0.030700 -0.094511 0.993042 -0.036287 -0.111942 0.525755 0.584295
0.122322 0.080374 -0.058421 0.991668 0.100284 -0.080660 0.554738 0.675219
0.122347 0.080374 0.058368 0.991699 0.107486 0.070284 0.650561 0.675219
0.122355 -0.030700 0.094459 0.991699 -0.033845 0.123814 0.679544 0.584295
0.182830 -0.224280 -0.196245 0.930692 0.348796 -0.110111 0.440983 0.420516
0.182840 -0.255908 -0.152712 0.922544 0.013550 0.385571 0.472263 0.397677
0.182906 -0.255909 0.152633 0.930631 0.003235 -0.365917 0.733035 0.397677
0.182915 -0.224280 0.196165 0.930723 0.348796 0.109714 0.764316 0.420516
0.182936 0.066120 0.290522 0.922452 -0.362682 -0.132328 0.844856 0.665731
0.182932 0.117296 0.273894 0.930631 0.212317 -0.297983 0.833096 0.702608
0.182879 0.296773 0.026865 0.922544 -0.237739 0.303903 0.621963 0.857410
0.182867 0.296773 -0.026944 0.930631 -0.217566 -0.294137 0.583336 0.857410
0.182814 0.117296 -0.273973 0.922544 0.215766 0.319865 0.372202 0.702608
0.182810 0.066120 -0.290601 0.930723 -0.346812 0.115879 0.360443 0.665731
0.142259 -0.189875 -0.209966 0.602008 0.516861 -0.608600 0.424962 0.457278
0.075341 -0.042442 -0.130639 0.628803 -0.240211 -0.739494 0.488823 0.572121
0.142329 -0.258335 0.115678 0.602008 -0.418958 -0.679739 0.693115 0.393502
0.075369 -0.137345 -0.000016 0.648244 -0.760857 -0.028535 0.602649 0.488836
0.075398 -0.042442 0.130606 0.648427 -0.208106 0.732261 0.716475 0.572122
0.142365 0.030216 0.281416 0.651448 -0.754997 0.074465 0.836009 0.626655
0.075387 0.111114 0.080713 0.648366 0.632252 0.424085 0.673936 0.707024
0.142317 0.277009 0.058204 0.651601 -0.162328 0.740959 0.656658 0.837319
0.075352 0.111114 -0.080745 0.648152 0.598865 -0.470351 0.531362 0.707024
0.142251 0.140985 -0.245486 0.651509 0.654653 0.383282 0.401872 0.729674
0.142279 -0.258335 -0.115739 0.651570 -0.304270 0.694845 0.512183 0.393502
0.142350 -0.189875 0.209904 0.602283 0.516861 0.608325 0.780336 0.457278
0.142357 0.140985 0.245425 0.602069 0.738395 -0.303659 0.803426 0.729674
0.142292 0.277009 -0.058265 0.601978 -0.060488 -0.796197 0.548640 0.837319
0.142243 0.030216 -0.281477 0.602100 -0.775811 -0.188574 0.369290 0.626655
3 0 1 2
3 2 3 0
3 3 2 4
3 4 5 3
3 5 4 6
3 6 7 5
3 7 6 8
3 8 9 7
3 9 8 10
3 10 11 9
3 11 10 12
3 12 13 11
3 13 12 14
3 14 15 13
3 15 14 16
3 16 17 15
3 17 16 18
3 18 19 17
3 19 18 20
3 20 21 19
3 21 20 22
3 22 23 21
3 23 22 24
3 24 25 23
3 25 24 26
3 26 27 25
3 27 26 28
3 28 29 27
3 29 28 30
3 30 31 29
3 32 33 34
3 34 35 32
3 35 34 36
3 36 37 35
3 37 36 38
3 38 39 37
3 39 38 40
3 40 41 39
3 41 40 1
3 1 0 41
3 1 42 43
3 43 2 1
3 2 43 44
3 44 4 2
3 4 44 45
3 45 6 4
3 6 45 46
3 46 8 6
3 8 46 47
3 47 10 8
3 10 47 48
3 48 12 10
3 12 48 49
3 49 14 12
3 14 49 50
3 50 16 14
3 16 50 51
3 51 18 16
3 18 51 52
3 52 20 18
3 20 52 53
3 53 22 20
3 22 53 54
3 54 24 22
3 24 54 55
3 55 26 24
3 26 55 56
3 56 28 26
3 28 56 57
3 57 30 28
3 33 58 59
3 59 34 33
3 34 59 60
3 60 36 34
3 36 60 61
3 61 38 36
3 38 61 62
3 62 40 38
3 40 62 42
3 42 1 40
3 63 64 65
3 65 66 63
3 66 65 67
3 67 68 66
3 68 67 69
3 69 70 68
3 70 69 71
3 71 72 70
3 72 71 73
3 73 74 72
3 74 73 75
3 75 76 74
3 76 75 77
3 77 78 76
3 78 77 79
3 79 80 78
3 80 79 81
3 81 82 80
3 82 81 83
3 83 84 82
3 84 83 85
3 85 86 84
3 86 85 87
3 87 88 86
3 88 87 89
3 89 90 88
3 90 89 91
3 91 92 90
3 92 91 93
3 93 94 92
3 95 96 97
3 97 98 95
3 98 97 99
3 99 100 98
3 100 99 101
3 101 102 100
3 102 101 103
3 103 104 102
3 104 103 64
3 64 63 104
3 64 52 51
3 51 65 64
3 65 51 50
3 50 67 65
3 67 50 49
3 49 69 67
3 69 49 48
3 48 71 69
3 71 48 47
3 47 73 71
3 73 47 46
3 46 75 73
3 75 46 45
3 45 77 75
3 77 45 44
3 44 79 77
3 79 44 43
3 43 81 79
3 81 43 42
3 42 83 81
3 83 42 62
3 62 85 83
3 85 62 61
3 61 87 85
3 87 61 60
3 60 89 87
3 89 60 59
3 59 91 89
3 91 59 58
3 58 93 91
3 96 57 56
3 56 97 96
3 97 56 55
3 55 99 97
3 99 55 54
3 54 101 99
3 101 54 53
3 53 103 101
3 103 53 52
3 52 64 103
3 105 106 107
3 107 108 105
3 106 109 110
3 110 107 106
3 109 111 112
3 112 110 109
3 111 113 114
3 114 112 111
3 113 115 116
3 116 114 113
3 115 117 118
3 118 116 115
3 117 119 120
3 120 118 117
3 119 121 122
3 122 120 119
3 121 123 124
3 124 122 121
3 123 125 126
3 126 124 123
3 125 127 128
3 128 126 125
3 127 129 130
3 130 128 127
3 129 131 132
3 132 130 129
3 131 133 134
3 134 132 131
3 133 135 136
3 136 134 133
3 135 137 138
3 138 136 135
3 137 139 140
3 140 138 137
3 139 141 142
3 142 140 139
3 141 143 144
3 144 142 141
3 143 105 108
3 108 144 143
3 108 107 145
3 145 146 108
3 107 110 147
3 147 145 107
3 110 112 148
3 148 147 110
3 112 114 149
3 149 148 112
3 114 116 150
3 150 149 114
3 116 118 151
3 151 150 116
3 118 120 152
3 152 151 118
3 120 122 153
3 153 152 120
3 122 124 154
3 154 153 122
3 124 126 155
3 155 154 124
3 126 128 156
3 156 155 126
3 128 130 157
3 157 156 128
3 130 132 158
3 158 157 130
3 132 134 159
3 159 158 132
3 134 136 160
3 160 159 134
3 136 138 161
3 161 160 136
3 138 140 162
3 162 161 138
3 140 142 163
3 163 162 140
3 142 144 164
3 164 163 142
3 144 108 146
3 146 164 144
3 105 165 166
3 166 106 105
3 106 166 167
3 167 109 106
3 109 167 168
3 168 111 109
3 111 168 169
3 169 113 111
3 113 169 170
3 170 115 113
3 115 170 171
3 171 117 115
3 117 171 172
3 172 119 117
3 119 172 173
3 173 121 119
3 121 173 174
3 174 123 121
3 123 174 175
3 175 125 123
3 125 175 176
3 176 127 125
3 127 176 177
3 177 129 127
3 129 177 178
3 178 131 129
3 131 178 179
3 179 133 131
3 133 179 180
3 180 135 133
3 135 180 181
3 181 137 135
3 137 181 182
3 182 139 137
3 139 182 183
3 183 141 139
3 141 183 184
3 184 143 141
3 143 184 165
3 165 105 143
3 185 186 187
3 187 188 185
3 189 190 186
3 186 185 189
3 191 192 193
3 193 194 191
3 195 196 197
3 197 198 195
3 199 200 196
3 196 195 199
3 201 202 200
3 200 199 201
3 203 204 205
3 205 206 203
3 207 208 204
3 204 203 207
3 209 210 211
3 211 212 209
3 213 214 209
3 209 212 213
3 215 216 217
3 217 218 215
3 219 220 221
3 221 222 219
3 187 223 224
3 224 188 187
3 225 226 227
3 227 228 225
3 229 230 226
3 226 225 229
3 231 232 230
3 230 229 231
3 233 234 232
3 232 231 233
3 235 236 234
3 234 233 235
3 237 238 236
3 236 235 237
3 239 240 238
3 238 237 239
3 241 242 240
3 240 239 241
3 243 244 242
3 242 241 243
3 245 246 244
3 244 243 245
3 247 248 246
3 246 245 247
3 249 250 248
3 248 247 249
3 251 252 250
3 250 249 251
3 253 254 252
3 252 251 253
3 255 256 254
3 254 253 255
3 257 258 256
3 256 255 257
3 259 260 258
3 258 257 259
3 261 262 260
3 260 259 261
3 263 264 262
3 262 261 263
3 228 227 264
3 264 263 228
3 228 265 266
3 266 225 228
3 225 266 267
3 267 229 225
3 229 267 268
3 268 231 229
3 231 268 269
3 269 233 231
3 233 269 270
3 270 235 233
3 235 270 271
3 271 237 235
3 237 271 272
3 272 239 237
3 239 272 273
3 273 241 239
3 241 273 274
3 274 243 241
3 243 274 275
3 275 245 243
3 245 275 276
3 276 247 245
3 247 276 277
3 277 249 247
3 249 277 278
3 278 251 249
3 251 278 279
3 279 253 251
3 253 279 280
3 280 255 253
3 255 280 281
3 281 257 255
3 257 281 282
3 282 259 257
3 259 282 283
3 283 261 259
3 261 283 284
3 284 263 261
3 263 284 265
3 265 228 263
3 285 286 227
3 227 226 285
3 287 285 226
3 226 230 287
3 288 287 230
3 230 232 288
3 289 288 232
3 232 234 289
3 290 289 234
3 234 236 290
3 291 290 236
3 236 238 291
3 292 291 238
3 238 240 292
3 293 292 240
3 240 242 293
3 294 293 242
3 242 244 294
3 295 294 244
3 244 246 295
3 296 295 246
3 246 248 296
3 297 296 248
3 248 250 297
3 298 297 250
3 250 252 298
3 299 298 252
3 252 254 299
3 300 299 254
3 254 256 300
3 301 300 256
3 256 258 301
3 302 301 258
3 258 260 302
3 303 302 260
3 260 262 303
3 304 303 262
3 262 264 304
3 286 304 264
3 264 227 286
3 305 306 190
3 190 189 305
3 193 306 305
3 305 194 193
3 205 202 201
3 201 206 205
3 307 208 207
3 207 308 307
3 210 307 308
3 308 211 210
3 221 220 216
3 216 215 221
3 224 223 219
3 219 222 224
3 309 310 311
3 311 310 312
3 312 310 313
3 313 310 314
3 314 310 315
3 315 310 316
3 316 310 317
3 317 310 318
3 318 310 319
3 319 310 320
3 320 310 321
3 321 310 309
3 322 323 324
3 322 324 325
3 322 325 326
3 327 323 322
3 322 328 327
3 329 322 326
3 326 330 329
3 331 326 325
3 325 332 331
3 333 325 324
3 324 334 333
3 335 324 323
3 323 336 335
3 337 338 323
3 323 327 337
3 339 340 322
3 322 329 339
3 341 326 331
3 331 342 341
3 343 325 333
3 333 344 343
3 345 324 335
3 335 346 345
3 340 347 328
3 328 322 340
3 348 330 326
3 326 341 348
3 349 332 325
3 325 343 349
3 350 334 324
3 324 345 350
3 351 336 323
3 323 338 351
